<svg xmlns="http://www.w3.org/2000/svg" viewBox="0 0 100 100">
  <defs>
    <linearGradient id="g" x1="14" y1="8" x2="86" y2="92" gradientUnits="userSpaceOnUse">
      <stop offset="0" stop-color="#8FD3FF"/><stop offset="0.5" stop-color="#3B86F7"/><stop offset="1" stop-color="#6D6BFF"/>
    </linearGradient>
    <radialGradient id="h" cx="34" cy="26" r="52" gradientUnits="userSpaceOnUse">
      <stop offset="0" stop-color="#FFFFFF" stop-opacity="0.45"/><stop offset="1" stop-color="#FFFFFF" stop-opacity="0"/>
    </radialGradient>
  </defs>
  <circle cx="50" cy="50" r="46" fill="url(#g)"/>
  <circle cx="50" cy="50" r="46" fill="url(#h)"/>
  <path d="M62.5 35.5C60 31 55.4 28.5 50 28.5c-7.6 0-13 4.4-13 10.3 0 13.7 27 8.6 27 22.6 0 6.4-6 10.9-14 10.9-6.3 0-11.6-2.8-14.4-7.6" fill="none" stroke="#FFFFFF" stroke-width="8.5" stroke-linecap="round"/>
  <path d="M72 14.5c.7 5 3.3 7.6 8.3 8.3-5 .7-7.6 3.3-8.3 8.3-.7-5-3.3-7.6-8.3-8.3 5-.7 7.6-3.3 8.3-8.3z" fill="#FFFFFF"/>
</svg>
